<svg width="1816" height="314" viewBox="0 0 1816 314" fill="none" xmlns="http://www.w3.org/2000/svg">
<path fill-rule="evenodd" clip-rule="evenodd" d="M478.313 254.174C478.611 249.281 478.762 244.349 478.762 239.381C478.762 107.175 371.588 0 239.381 0C107.175 0 0 107.175 0 239.381C0 257.395 1.98973 274.944 5.76139 291.82L6.0095 291.463L89.6426 202.321L188.8 313.999L152.242 238.88L246.893 117.687L381.107 306.487L357.569 250.398L407.148 192.305L478.261 253.904L478.313 254.174Z" fill="white"/>
<path d="M768.005 245.136L767.758 141.299L716.829 226.841H698.781L648.099 143.524V245.136H610.52V72.0749H643.649L708.423 179.62L772.208 72.0749H805.09L805.584 245.136H768.005ZM907.215 247.113C893.205 247.113 880.596 244.229 869.389 238.46C858.346 232.527 849.693 224.368 843.43 213.985C837.166 203.601 834.035 191.816 834.035 178.631C834.035 165.445 837.166 153.661 843.43 143.277C849.693 132.893 858.346 124.817 869.389 119.049C880.596 113.115 893.205 110.148 907.215 110.148C921.224 110.148 933.751 113.115 944.794 119.049C955.837 124.817 964.49 132.893 970.753 143.277C977.016 153.661 980.148 165.445 980.148 178.631C980.148 191.816 977.016 203.601 970.753 213.985C964.49 224.368 955.837 232.527 944.794 238.46C933.751 244.229 921.224 247.113 907.215 247.113ZM907.215 215.468C917.104 215.468 925.18 212.172 931.443 205.579C937.871 198.821 941.085 189.839 941.085 178.631C941.085 167.423 937.871 158.523 931.443 151.93C925.18 145.172 917.104 141.794 907.215 141.794C897.326 141.794 889.167 145.172 882.739 151.93C876.311 158.523 873.097 167.423 873.097 178.631C873.097 189.839 876.311 198.821 882.739 205.579C889.167 212.172 897.326 215.468 907.215 215.468ZM1134.33 112.126L1078.2 245.136H1038.4L982.527 112.126H1022.33L1059.17 202.612L1097.24 112.126H1134.33ZM1276.73 179.125C1276.73 179.62 1276.48 183.081 1275.99 189.509H1175.37C1177.18 197.75 1181.47 204.26 1188.22 209.04C1194.98 213.82 1203.39 216.21 1213.44 216.21C1220.36 216.21 1226.46 215.221 1231.74 213.243C1237.18 211.1 1242.2 207.804 1246.82 203.354L1267.34 225.604C1254.81 239.944 1236.52 247.113 1212.45 247.113C1197.45 247.113 1184.19 244.229 1172.65 238.46C1161.11 232.527 1152.21 224.368 1145.95 213.985C1139.68 203.601 1136.55 191.816 1136.55 178.631C1136.55 165.61 1139.6 153.908 1145.7 143.524C1151.96 132.976 1160.45 124.817 1171.17 119.049C1182.04 113.115 1194.16 110.148 1207.51 110.148C1220.53 110.148 1232.31 112.95 1242.86 118.554C1253.41 124.158 1261.65 132.234 1267.58 142.783C1273.68 153.166 1276.73 165.28 1276.73 179.125ZM1207.76 139.321C1199.02 139.321 1191.69 141.794 1185.75 146.738C1179.82 151.683 1176.19 158.44 1174.87 167.011H1240.39C1239.07 158.605 1235.44 151.93 1229.51 146.985C1223.58 141.876 1216.33 139.321 1207.76 139.321ZM1419.1 208.051H1338.75L1323.42 245.136H1282.38L1359.52 72.0749H1399.08L1476.46 245.136H1434.43L1419.1 208.051ZM1406.49 177.642L1379.05 111.384L1351.61 177.642H1406.49ZM1570.31 110.148C1582.67 110.148 1593.88 113.033 1603.94 118.801C1614.16 124.405 1622.15 132.399 1627.92 142.783C1633.69 153.001 1636.57 164.951 1636.57 178.631C1636.57 192.311 1633.69 204.343 1627.92 214.726C1622.15 224.945 1614.16 232.939 1603.94 238.708C1593.88 244.312 1582.67 247.113 1570.31 247.113C1553.34 247.113 1539.99 241.757 1530.26 231.044V293.098H1491.69V112.126H1528.53V127.454C1538.09 115.917 1552.02 110.148 1570.31 110.148ZM1563.64 215.468C1573.53 215.468 1581.6 212.172 1587.87 205.579C1594.29 198.821 1597.51 189.839 1597.51 178.631C1597.51 167.423 1594.29 158.523 1587.87 151.93C1581.6 145.172 1573.53 141.794 1563.64 141.794C1553.75 141.794 1545.59 145.172 1539.16 151.93C1532.9 158.523 1529.77 167.423 1529.77 178.631C1529.77 189.839 1532.9 198.821 1539.16 205.579C1545.59 212.172 1553.75 215.468 1563.64 215.468ZM1741.01 110.148C1753.37 110.148 1764.58 113.033 1774.63 118.801C1784.85 124.405 1792.84 132.399 1798.61 142.783C1804.38 153.001 1807.27 164.951 1807.27 178.631C1807.27 192.311 1804.38 204.343 1798.61 214.726C1792.84 224.945 1784.85 232.939 1774.63 238.708C1764.58 244.312 1753.37 247.113 1741.01 247.113C1724.03 247.113 1710.68 241.757 1700.96 231.044V293.098H1662.39V112.126H1699.23V127.454C1708.79 115.917 1722.71 110.148 1741.01 110.148ZM1734.33 215.468C1744.22 215.468 1752.3 212.172 1758.56 205.579C1764.99 198.821 1768.2 189.839 1768.2 178.631C1768.2 167.423 1764.99 158.523 1758.56 151.93C1752.3 145.172 1744.22 141.794 1734.33 141.794C1724.44 141.794 1716.28 145.172 1709.86 151.93C1703.59 158.523 1700.46 167.423 1700.46 178.631C1700.46 189.839 1703.59 198.821 1709.86 205.579C1716.28 212.172 1724.44 215.468 1734.33 215.468Z" fill="white"/>
</svg>
